<svg xmlns="http://www.w3.org/2000/svg" viewBox="0 0 880 150"><defs><style>.cls-1{fill:#282c34;}.cls-2{fill:#53c1de;}.cls-3{fill:#fff;}</style></defs><title>Fichier 1</title><g id="Calque_2" data-name="Calque 2"><g id="Calque_1-2" data-name="Calque 1"><rect class="cls-1" width="880" height="150"/><path class="cls-2" d="M258.82,58.71h0q-1.66-.57-3.35-1.06.28-1.14.52-2.29c2.54-12.32.88-22.24-4.79-25.51-5.43-3.13-14.32.13-23.29,7.94q-1.33,1.16-2.59,2.38-.85-.81-1.73-1.59c-9.4-8.35-18.83-11.87-24.49-8.59-5.43,3.14-7,12.47-4.75,24.14q.34,1.73.77,3.45c-1.33.38-2.62.78-3.85,1.21-11,3.84-18.06,9.87-18.06,16.11,0,6.45,7.56,12.93,19,16.85q1.4.48,2.82.88-.46,1.85-.82,3.72c-2.18,11.47-.48,20.58,4.94,23.7,5.59,3.22,15-.09,24.11-8.08q1.08-.95,2.17-2,1.37,1.32,2.81,2.57c8.85,7.62,17.59,10.69,23,7.56,5.59-3.23,7.4-13,5-24.92q-.27-1.36-.62-2.78,1-.29,1.94-.6c11.94-4,19.7-10.35,19.7-16.89C277.33,68.64,270.07,62.58,258.82,58.71Zm-27-17.64c7.69-6.69,14.87-9.33,18.15-7.44h0c3.49,2,4.84,10.12,2.65,20.75q-.22,1-.47,2.07a106.56,106.56,0,0,0-13.92-2.2,104.49,104.49,0,0,0-8.8-11Q230.55,42.14,231.78,41.07ZM204.9,80.16q1.41,2.73,3,5.39t3.27,5.35a94.71,94.71,0,0,1-9.6-1.54C202.44,86.39,203.57,83.3,204.9,80.16Zm0-10.46c-1.3-3.07-2.4-6.09-3.31-9,3-.66,6.14-1.21,9.44-1.62q-1.66,2.59-3.19,5.25T204.89,69.7Zm2.36,5.23q2.06-4.28,4.43-8.39h0q2.37-4.11,5-8c3.1-.23,6.27-.36,9.48-.36s6.4.12,9.5.36q2.65,3.92,5,8t4.49,8.35q-2.09,4.29-4.47,8.43h0q-2.37,4.11-5,8.06c-3.09.22-6.28.33-9.54.33s-6.39-.1-9.43-.3q-2.7-3.94-5.09-8.07T207.26,74.93ZM244.6,85.52q1.57-2.72,3-5.52h0a94.46,94.46,0,0,1,3.5,9.16,94.4,94.4,0,0,1-9.71,1.66Q243.05,88.2,244.6,85.52Zm3-15.82q-1.44-2.74-3-5.42h0q-1.53-2.64-3.17-5.21c3.32.42,6.51,1,9.49,1.66A94.89,94.89,0,0,1,247.58,69.7ZM226.26,46.45h0a95.13,95.13,0,0,1,6.13,7.4q-6.15-.29-12.31,0C222.11,51.17,224.18,48.69,226.26,46.45Zm-24-12.69c3.48-2,11.19.86,19.31,8.07.52.46,1,.94,1.56,1.44a106.59,106.59,0,0,0-8.87,11,108.69,108.69,0,0,0-13.89,2.16q-.4-1.59-.72-3.21h0C197.71,43.19,199,35.65,202.28,33.76ZM197.2,88.27q-1.29-.37-2.57-.8A37.68,37.68,0,0,1,182.49,81c-2.58-2.21-3.89-4.41-3.89-6.19,0-3.79,5.65-8.63,15.08-11.91q1.78-.62,3.58-1.13a106.68,106.68,0,0,0,5.08,13.15A108.3,108.3,0,0,0,197.2,88.27Zm24.11,20.28a37.67,37.67,0,0,1-11.66,7.3h0c-3.21,1.13-5.76,1.16-7.3.27-3.28-1.89-4.65-9.21-2.79-19q.33-1.74.76-3.46a104.6,104.6,0,0,0,14,2,108.24,108.24,0,0,0,8.94,11Q222.32,107.66,221.31,108.55Zm5.08-5c-2.11-2.28-4.21-4.79-6.26-7.5q3,.12,6.09.12T232.5,96A94.6,94.6,0,0,1,226.39,103.52Zm27,6.19c-.62,3.34-1.87,5.57-3.41,6.46-3.28,1.9-10.3-.57-17.87-7.08q-1.3-1.12-2.62-2.39a104.53,104.53,0,0,0,8.73-11.08,103.84,103.84,0,0,0,14.1-2.17q.32,1.29.56,2.52h0A37.67,37.67,0,0,1,253.4,109.71Zm3.78-22.22h0c-.57.19-1.15.37-1.75.55a104.4,104.4,0,0,0-5.27-13.19,104.36,104.36,0,0,0,5.07-13c1.06.31,2.1.63,3.1,1,9.64,3.32,15.51,8.22,15.51,12C273.83,78.85,267.48,84.08,257.17,87.49Z"/><circle class="cls-2" cx="225.27" cy="74.91" r="9.3"/><path class="cls-3" d="M300.74,32.38h29.79a36.92,36.92,0,0,1,12.33,1.8,21.12,21.12,0,0,1,8.19,5q5.58,5.4,5.58,14.67v.18q0,7.29-3.51,12.06a22.19,22.19,0,0,1-9.45,7.29l15,22H338.54L325.85,76.3H318.2V95.38H300.74Zm29,30.24q4.5,0,6.93-2a6.72,6.72,0,0,0,2.43-5.44V55a6.52,6.52,0,0,0-2.52-5.62,11.53,11.53,0,0,0-6.93-1.84H318.2V62.62Z"/><path class="cls-3" d="M388.58,96.55a29,29,0,0,1-10.53-1.84,24.81,24.81,0,0,1-8.24-5.13,22.83,22.83,0,0,1-5.4-8,26.82,26.82,0,0,1-1.94-10.35v-.18a27.21,27.21,0,0,1,1.8-9.95,24.55,24.55,0,0,1,5.08-8.1,23.83,23.83,0,0,1,7.78-5.44,24.33,24.33,0,0,1,9.9-2A25.68,25.68,0,0,1,398,47.77a21.61,21.61,0,0,1,7.65,5.8,24.42,24.42,0,0,1,4.5,8.46,34.49,34.49,0,0,1,1.48,10.22V74q0,.9-.09,1.8H379a10,10,0,0,0,3.73,6,11.31,11.31,0,0,0,6.79,2,13.39,13.39,0,0,0,5.63-1.17,18.11,18.11,0,0,0,5.18-3.78l9.45,7.83a26.28,26.28,0,0,1-8.69,7.2A26.65,26.65,0,0,1,388.58,96.55Zm7-29.52a10.83,10.83,0,0,0-2.7-6.44,7.57,7.57,0,0,0-5.76-2.38,7.19,7.19,0,0,0-5.58,2.38A12.66,12.66,0,0,0,378.68,67Z"/><path class="cls-3" d="M432.86,96.46a20.37,20.37,0,0,1-6.48-1,15.26,15.26,0,0,1-5.18-2.88,13.23,13.23,0,0,1-3.46-4.68,15.59,15.59,0,0,1-1.26-6.48v-.18a15.08,15.08,0,0,1,1.4-6.66,13.07,13.07,0,0,1,3.87-4.77,17.66,17.66,0,0,1,6-2.88,28.83,28.83,0,0,1,7.83-1,35.28,35.28,0,0,1,6.53.58,37.11,37.11,0,0,1,5.17,1.31V67a7.34,7.34,0,0,0-2.38-5.85q-2.39-2.07-7.33-2.07a31.59,31.59,0,0,0-7,.72,45.92,45.92,0,0,0-6.39,2l-3.51-12.06A53.55,53.55,0,0,1,429.4,47a50.76,50.76,0,0,1,10.93-1,35.14,35.14,0,0,1,11.12,1.53,18.79,18.79,0,0,1,7.42,4.41,15.43,15.43,0,0,1,4,6.53,29.64,29.64,0,0,1,1.21,9v28H447.17v-5a18.18,18.18,0,0,1-14.31,6.12ZM439,85.75a8.66,8.66,0,0,0,6.12-2.16,7.57,7.57,0,0,0,2.34-5.85V75.49a15.81,15.81,0,0,0-3-.9,18.15,18.15,0,0,0-3.65-.36,8.92,8.92,0,0,0-5.8,1.67,5.38,5.38,0,0,0-2,4.36v.18a4.77,4.77,0,0,0,1.71,3.92A6.6,6.6,0,0,0,439,85.75Z"/><path class="cls-3" d="M496.31,96.55A25,25,0,0,1,472.78,81a25.07,25.07,0,0,1-1.93-9.76v-.18a25,25,0,0,1,15.52-23.35,27,27,0,0,1,10.58-2,24.48,24.48,0,0,1,12.6,3,24.07,24.07,0,0,1,8.19,7.92l-11.61,8.64a15.31,15.31,0,0,0-3.87-3.78A9.38,9.38,0,0,0,497,60.1a8.62,8.62,0,0,0-3.83.85,9.2,9.2,0,0,0-3,2.34,11.33,11.33,0,0,0-2,3.42,11.88,11.88,0,0,0-.72,4.19v.18a12.9,12.9,0,0,0,.72,4.36,11.1,11.1,0,0,0,2,3.51,9,9,0,0,0,7,3.19,9.43,9.43,0,0,0,5.17-1.35,20.22,20.22,0,0,0,4.18-3.69L518,85.39a26.84,26.84,0,0,1-8.55,8.1Q504.32,96.55,496.31,96.55Z"/><path class="cls-3" d="M543.47,96.37q-7.78,0-12.12-3.69T527,80.26V60.46h-5.76V46.69H527V34.36h17.19V46.69h11.34V60.46H544.19V76.93a5,5,0,0,0,1.17,3.74,4.88,4.88,0,0,0,3.51,1.13,12.36,12.36,0,0,0,3.33-.45,19.87,19.87,0,0,0,3.15-1.17V93.58a23.49,23.49,0,0,1-5.31,2A26.36,26.36,0,0,1,543.47,96.37Z"/><path class="cls-3" d="M580.73,96.46a31.65,31.65,0,0,1-7.47-.81,25.54,25.54,0,0,1-6-2.25A24.52,24.52,0,0,1,562.37,90a26,26,0,0,1-3.78-4.18l11.25-10.62a22.5,22.5,0,0,0,4.63,4.32,9.11,9.11,0,0,0,5.17,1.53,6.64,6.64,0,0,0,5.26-2.21q1.94-2.2,1.94-6.61V32.38h17.37v40a30.8,30.8,0,0,1-1.53,10.26A19.74,19.74,0,0,1,598,90.07a20.64,20.64,0,0,1-7.52,4.77A27.9,27.9,0,0,1,580.73,96.46Z"/><path class="cls-3" d="M639.32,96.46a48.89,48.89,0,0,1-16.07-2.63A38.93,38.93,0,0,1,609.8,86l9.72-11.63Q629,81.88,640,81.88a10.42,10.42,0,0,0,5.36-1.12,3.54,3.54,0,0,0,1.84-3.19v-.18a3.39,3.39,0,0,0-.45-1.75A4.59,4.59,0,0,0,645,74.15a17.2,17.2,0,0,0-3.24-1.39q-2-.68-5.26-1.39-5-1.17-9.36-2.56a28.6,28.6,0,0,1-7.51-3.59,15.34,15.34,0,0,1-6.88-13.61v-.18a19.38,19.38,0,0,1,1.67-8.09A17.93,17.93,0,0,1,619.3,37a22.87,22.87,0,0,1,7.7-4.18,32.45,32.45,0,0,1,10.17-1.48,45.34,45.34,0,0,1,14.45,2.13,36.45,36.45,0,0,1,11.47,6.29l-8.73,12.37a35.44,35.44,0,0,0-8.87-4.63,26.77,26.77,0,0,0-8.78-1.58A7.89,7.89,0,0,0,632,47a3.47,3.47,0,0,0-1.58,2.87v.18a3.54,3.54,0,0,0,.5,1.89,4.49,4.49,0,0,0,1.71,1.48,18.77,18.77,0,0,0,3.33,1.35q2.11.68,5.35,1.39a77,77,0,0,1,9.77,2.74,29.23,29.23,0,0,1,7.42,3.82,15.29,15.29,0,0,1,4.68,5.44,16.58,16.58,0,0,1,1.62,7.59V76a19.4,19.4,0,0,1-1.84,8.62A18.51,18.51,0,0,1,657.77,91a23.43,23.43,0,0,1-8,4A36.53,36.53,0,0,1,639.32,96.46Z"/><path class="cls-3" d="M304.79,118a4.17,4.17,0,0,1-1.44-.24,3,3,0,0,1-1.12-.7,3.17,3.17,0,0,1-.72-1.16,4.58,4.58,0,0,1-.25-1.59v-4.95h1v4.88a3,3,0,0,0,.69,2.13,2.48,2.48,0,0,0,1.91.74,2.51,2.51,0,0,0,1.87-.71,2.88,2.88,0,0,0,.69-2.1v-4.95h1v4.87a4.82,4.82,0,0,1-.26,1.64,3.19,3.19,0,0,1-.72,1.18,3,3,0,0,1-1.12.71A4.21,4.21,0,0,1,304.79,118Z"/><path class="cls-3" d="M310.45,111.59h.94v1.09a3,3,0,0,1,.83-.87,2.25,2.25,0,0,1,1.32-.36,2.66,2.66,0,0,1,1,.18,2.11,2.11,0,0,1,.75.52,2.28,2.28,0,0,1,.47.8,3,3,0,0,1,.16,1v3.9H315v-3.66a2,2,0,0,0-.45-1.38,1.63,1.63,0,0,0-1.29-.51,2,2,0,0,0-.75.14,1.74,1.74,0,0,0-.6.4,1.81,1.81,0,0,0-.4.62,2.21,2.21,0,0,0-.14.8v3.59h-.94Z"/><path class="cls-3" d="M318.5,115.11a2.51,2.51,0,0,0,.24.89,2.13,2.13,0,0,0,.5.66,2.18,2.18,0,0,0,.68.41,2.26,2.26,0,0,0,.79.14,2.41,2.41,0,0,0,1.12-.24,3.33,3.33,0,0,0,.86-.64l.58.52a3.83,3.83,0,0,1-1.08.86,3.2,3.2,0,0,1-1.51.32,3.15,3.15,0,0,1-1.22-.24,3,3,0,0,1-1-.67,3.17,3.17,0,0,1-.67-1,3.49,3.49,0,0,1-.25-1.34,3.64,3.64,0,0,1,.22-1.28,3.21,3.21,0,0,1,.63-1,2.91,2.91,0,0,1,1-.7,3,3,0,0,1,2.45,0,2.72,2.72,0,0,1,.92.71,3.09,3.09,0,0,1,.57,1.06,4.23,4.23,0,0,1,.19,1.3v.14a1.83,1.83,0,0,1,0,.19Zm4-.77a2.93,2.93,0,0,0-.18-.8,2.27,2.27,0,0,0-.39-.67,1.8,1.8,0,0,0-.61-.46,1.89,1.89,0,0,0-.82-.17,1.83,1.83,0,0,0-.75.16,1.92,1.92,0,0,0-.62.44,2.45,2.45,0,0,0-.44.67,2.69,2.69,0,0,0-.22.83Z"/><path class="cls-3" d="M328.8,109.18h1.07v1H328.8Zm.06,2.41h.94v6.28h-.94Z"/><path class="cls-3" d="M332,111.59h.94v1.09a3,3,0,0,1,.83-.87,2.25,2.25,0,0,1,1.32-.36,2.66,2.66,0,0,1,1,.18,2.11,2.11,0,0,1,.75.52,2.28,2.28,0,0,1,.47.8,3,3,0,0,1,.16,1v3.9h-.94v-3.66a2,2,0,0,0-.45-1.38,1.63,1.63,0,0,0-1.29-.51,2,2,0,0,0-.75.14,1.74,1.74,0,0,0-.6.4,1.81,1.81,0,0,0-.4.62,2.21,2.21,0,0,0-.14.8v3.59H332Z"/><path class="cls-3" d="M341.56,118a2.44,2.44,0,0,1-.7-.1,1.45,1.45,0,0,1-.57-.31,1.43,1.43,0,0,1-.37-.55,2.22,2.22,0,0,1-.13-.81v-3.79h-.87v-.83h.88v-1.9h.94v1.9h2v.83h-2v3.66a1,1,0,0,0,.29.81,1.2,1.2,0,0,0,.77.23,2,2,0,0,0,.91-.21v.8a2.09,2.09,0,0,1-.52.2A2.62,2.62,0,0,1,341.56,118Z"/><path class="cls-3" d="M344.36,111.59h.94v1.64a3.36,3.36,0,0,1,.43-.72,2.82,2.82,0,0,1,.58-.56,2.47,2.47,0,0,1,.72-.36,2.57,2.57,0,0,1,.84-.11v1h-.07a2.58,2.58,0,0,0-1,.18,2.18,2.18,0,0,0-.8.55,2.59,2.59,0,0,0-.53.91,3.68,3.68,0,0,0-.19,1.25v2.5h-.94Z"/><path class="cls-3" d="M352.15,118a3.2,3.2,0,0,1-1.3-.26,3.28,3.28,0,0,1-1-.71,3.18,3.18,0,0,1-.68-1,3.27,3.27,0,0,1-.24-1.26v0a3.31,3.31,0,0,1,.24-1.26,3.32,3.32,0,0,1,4.34-1.76,3.29,3.29,0,0,1,1,.71,3.19,3.19,0,0,1,.68,1,3.27,3.27,0,0,1,.24,1.26v0a3.25,3.25,0,0,1-.25,1.26,3.34,3.34,0,0,1-.69,1,3.2,3.2,0,0,1-1,.71A3.29,3.29,0,0,1,352.15,118Zm0-.84a2.22,2.22,0,0,0,.94-.19,2.27,2.27,0,0,0,.73-.52,2.39,2.39,0,0,0,.47-.77,2.56,2.56,0,0,0,.17-.94v0a2.57,2.57,0,0,0-.18-1,2.42,2.42,0,0,0-.49-.78,2.36,2.36,0,0,0-.74-.53,2.19,2.19,0,0,0-.92-.19,2.22,2.22,0,0,0-.94.19,2.2,2.2,0,0,0-.72.52,2.42,2.42,0,0,0-.47.77,2.6,2.6,0,0,0-.17.94v0a2.57,2.57,0,0,0,.18,1,2.4,2.4,0,0,0,.49.77,2.34,2.34,0,0,0,.73.52A2.19,2.19,0,0,0,352.18,117.18Z"/><path class="cls-3" d="M359.77,118a2.9,2.9,0,0,1-1.11-.22,3,3,0,0,1-1-.64,3.13,3.13,0,0,1-.68-1,3.51,3.51,0,0,1-.26-1.38v0a3.52,3.52,0,0,1,.26-1.37,3.12,3.12,0,0,1,.68-1,3,3,0,0,1,1-.64,2.83,2.83,0,0,1,1.11-.22,2.77,2.77,0,0,1,.8.11,2.68,2.68,0,0,1,.66.29,2.84,2.84,0,0,1,.53.43,3.8,3.8,0,0,1,.42.51V109h.94v8.87h-.94v-1.26a4.89,4.89,0,0,1-.43.54,3,3,0,0,1-.53.45,2.45,2.45,0,0,1-.65.3A2.71,2.71,0,0,1,359.77,118Zm.17-.84a2.11,2.11,0,0,0,.84-.18,2.32,2.32,0,0,0,.73-.5,2.39,2.39,0,0,0,.51-.77,2.51,2.51,0,0,0,.19-1v0a2.51,2.51,0,0,0-.19-1,2.31,2.31,0,0,0-.51-.76,2.37,2.37,0,0,0-.73-.49,2.11,2.11,0,0,0-.84-.18,2.26,2.26,0,0,0-.86.16,2,2,0,0,0-.7.47,2.29,2.29,0,0,0-.47.76,2.77,2.77,0,0,0-.18,1v0a2.74,2.74,0,0,0,.18,1,2.3,2.3,0,0,0,.48.77,2.12,2.12,0,0,0,.7.49A2.16,2.16,0,0,0,359.94,117.16Z"/><path class="cls-3" d="M367.51,118a2.64,2.64,0,0,1-1-.18,2.08,2.08,0,0,1-.75-.52,2.27,2.27,0,0,1-.47-.79,3,3,0,0,1-.16-1v-3.9H366v3.66a2,2,0,0,0,.45,1.38,1.63,1.63,0,0,0,1.29.51,2,2,0,0,0,.75-.14,1.68,1.68,0,0,0,.6-.4,1.93,1.93,0,0,0,.39-.62,2.12,2.12,0,0,0,.15-.8v-3.59h.92v6.28h-.92v-1.09a3,3,0,0,1-.83.87A2.26,2.26,0,0,1,367.51,118Z"/><path class="cls-3" d="M375.52,118a3.13,3.13,0,0,1-1.28-.26,3.19,3.19,0,0,1-1.7-1.74,3.27,3.27,0,0,1-.24-1.25v0a3.32,3.32,0,0,1,.92-2.31,3.2,3.2,0,0,1,1-.71,3.13,3.13,0,0,1,1.28-.26,3.6,3.6,0,0,1,.81.08,3,3,0,0,1,1.23.6,5,5,0,0,1,.47.44l-.62.66a4.47,4.47,0,0,0-.82-.67,2,2,0,0,0-1.09-.28,2.11,2.11,0,0,0-.89.19,2.23,2.23,0,0,0-.72.52,2.37,2.37,0,0,0-.47.77,2.63,2.63,0,0,0-.17,1v0a2.57,2.57,0,0,0,.18,1,2.48,2.48,0,0,0,.49.78,2.23,2.23,0,0,0,.73.52,2.2,2.2,0,0,0,.92.19,2.12,2.12,0,0,0,1.08-.27,3.6,3.6,0,0,0,.84-.67l.6.56a4.18,4.18,0,0,1-1.08.88A3,3,0,0,1,375.52,118Z"/><path class="cls-3" d="M381.72,118a2.44,2.44,0,0,1-.7-.1,1.45,1.45,0,0,1-.57-.31,1.43,1.43,0,0,1-.37-.55,2.22,2.22,0,0,1-.13-.81v-3.79h-.87v-.83H380v-1.9h.94v1.9h2v.83h-2v3.66a1,1,0,0,0,.29.81,1.2,1.2,0,0,0,.77.23,2,2,0,0,0,.91-.21v.8a2.09,2.09,0,0,1-.52.2A2.62,2.62,0,0,1,381.72,118Z"/><path class="cls-3" d="M384.56,109.18h1.07v1h-1.07Zm.06,2.41h.94v6.28h-.94Z"/><path class="cls-3" d="M390.59,118a3.2,3.2,0,0,1-1.3-.26,3.28,3.28,0,0,1-1-.71,3.18,3.18,0,0,1-.68-1,3.27,3.27,0,0,1-.24-1.26v0a3.31,3.31,0,0,1,.24-1.26,3.32,3.32,0,0,1,4.34-1.76,3.29,3.29,0,0,1,1,.71,3.19,3.19,0,0,1,.68,1,3.27,3.27,0,0,1,.24,1.26v0a3.25,3.25,0,0,1-.25,1.26,3.34,3.34,0,0,1-.69,1,3.2,3.2,0,0,1-1,.71A3.29,3.29,0,0,1,390.59,118Zm0-.84a2.22,2.22,0,0,0,.94-.19,2.27,2.27,0,0,0,.73-.52,2.39,2.39,0,0,0,.47-.77,2.56,2.56,0,0,0,.17-.94v0a2.57,2.57,0,0,0-.18-1,2.42,2.42,0,0,0-.49-.78,2.36,2.36,0,0,0-.74-.53,2.19,2.19,0,0,0-.92-.19,2.22,2.22,0,0,0-.94.19,2.2,2.2,0,0,0-.72.52,2.42,2.42,0,0,0-.47.77,2.6,2.6,0,0,0-.17.94v0a2.57,2.57,0,0,0,.18,1,2.4,2.4,0,0,0,.49.77,2.34,2.34,0,0,0,.73.52A2.19,2.19,0,0,0,390.62,117.18Z"/><path class="cls-3" d="M395.57,111.59h.94v1.09a3,3,0,0,1,.83-.87,2.25,2.25,0,0,1,1.32-.36,2.66,2.66,0,0,1,1,.18,2.11,2.11,0,0,1,.75.52,2.28,2.28,0,0,1,.47.8,3,3,0,0,1,.16,1v3.9h-.94v-3.66a2,2,0,0,0-.45-1.38,1.63,1.63,0,0,0-1.29-.51,2,2,0,0,0-.75.14,1.74,1.74,0,0,0-.6.4,1.81,1.81,0,0,0-.4.62,2.21,2.21,0,0,0-.14.8v3.59h-.94Z"/><path class="cls-3" d="M408.58,118a3.13,3.13,0,0,1-.86-.12,2.24,2.24,0,0,1-.75-.37,1.92,1.92,0,0,1-.53-.62,1.74,1.74,0,0,1-.2-.85v0a2,2,0,0,1,.19-.9,1.74,1.74,0,0,1,.55-.64,2.67,2.67,0,0,1,.85-.39,4.15,4.15,0,0,1,1.09-.13A6.67,6.67,0,0,1,410,114a7.78,7.78,0,0,1,.87.2V114a1.58,1.58,0,0,0-.49-1.25,2,2,0,0,0-1.37-.43,3.94,3.94,0,0,0-1,.12,5.29,5.29,0,0,0-.89.33l-.28-.77a6.62,6.62,0,0,1,1.06-.39,4.61,4.61,0,0,1,1.23-.15,2.75,2.75,0,0,1,2,.69,2.5,2.5,0,0,1,.66,1.85v3.84h-.92v-.95a3,3,0,0,1-.88.75A2.67,2.67,0,0,1,408.58,118Zm.19-.77a2.62,2.62,0,0,0,.81-.12,2.09,2.09,0,0,0,.66-.35,1.67,1.67,0,0,0,.45-.53,1.45,1.45,0,0,0,.16-.69V115q-.35-.1-.8-.18a5.57,5.57,0,0,0-1-.08,2.28,2.28,0,0,0-1.35.35,1.08,1.08,0,0,0-.48.92v0a1.1,1.1,0,0,0,.13.53,1.15,1.15,0,0,0,.35.39,1.65,1.65,0,0,0,.5.24A2.08,2.08,0,0,0,408.76,117.24Zm-1.31-7.91,1-.45,1.15,1.75h-.75Z"/><path class="cls-3" d="M417.47,109h.94v8.87h-.94Z"/><path class="cls-3" d="M422.45,118a3.13,3.13,0,0,1-.86-.12,2.23,2.23,0,0,1-.75-.37,1.94,1.94,0,0,1-.53-.61,1.75,1.75,0,0,1-.2-.85v0a2,2,0,0,1,.19-.89,1.75,1.75,0,0,1,.55-.64,2.66,2.66,0,0,1,.85-.39,4.14,4.14,0,0,1,1.09-.13,6.54,6.54,0,0,1,1.05.07,7.72,7.72,0,0,1,.87.19V114a1.6,1.6,0,0,0-.49-1.26,2,2,0,0,0-1.37-.43,3.94,3.94,0,0,0-1,.12,5.25,5.25,0,0,0-.89.33l-.28-.77a6.59,6.59,0,0,1,1.06-.39,4.61,4.61,0,0,1,1.23-.15,2.75,2.75,0,0,1,2,.69,2.5,2.5,0,0,1,.66,1.85v3.84h-.92v-.94a3,3,0,0,1-.88.75A2.7,2.7,0,0,1,422.45,118Zm.19-.77a2.62,2.62,0,0,0,.81-.12,2.09,2.09,0,0,0,.66-.34,1.66,1.66,0,0,0,.45-.53,1.43,1.43,0,0,0,.16-.68V115q-.35-.1-.8-.18a5.56,5.56,0,0,0-1-.08,2.28,2.28,0,0,0-1.35.34,1.07,1.07,0,0,0-.48.91v0a1.1,1.1,0,0,0,.13.53,1.16,1.16,0,0,0,.35.39,1.64,1.64,0,0,0,.5.24A2.08,2.08,0,0,0,422.64,117.24Z"/><path class="cls-3" d="M434.09,118a3.13,3.13,0,0,1-1.28-.26,3.19,3.19,0,0,1-1.69-1.74,3.27,3.27,0,0,1-.24-1.25v0a3.33,3.33,0,0,1,.92-2.31,3.21,3.21,0,0,1,1-.71,3.13,3.13,0,0,1,1.28-.26,3.58,3.58,0,0,1,.81.08,3,3,0,0,1,1.23.6,4.94,4.94,0,0,1,.47.44l-.62.66a4.44,4.44,0,0,0-.82-.67,2,2,0,0,0-1.09-.28,2.11,2.11,0,0,0-.89.19,2.22,2.22,0,0,0-.72.52,2.38,2.38,0,0,0-.47.77,2.64,2.64,0,0,0-.17,1v0a2.57,2.57,0,0,0,.18,1,2.46,2.46,0,0,0,.49.78,2.23,2.23,0,0,0,.73.52,2.21,2.21,0,0,0,.92.19,2.13,2.13,0,0,0,1.08-.27,3.59,3.59,0,0,0,.84-.67l.6.56a4.16,4.16,0,0,1-1.08.88A3,3,0,0,1,434.09,118Z"/><path class="cls-3" d="M438.2,111.59h.94v1.64a3.36,3.36,0,0,1,.42-.72,2.85,2.85,0,0,1,.58-.56,2.47,2.47,0,0,1,.72-.36,2.56,2.56,0,0,1,.84-.11v1h-.07a2.59,2.59,0,0,0-1,.18,2.19,2.19,0,0,0-.8.55,2.6,2.6,0,0,0-.53.91,3.66,3.66,0,0,0-.19,1.25v2.5h-.94Z"/><path class="cls-3" d="M443.68,115.11a2.5,2.5,0,0,0,.24.89,2.14,2.14,0,0,0,.5.66,2.18,2.18,0,0,0,.68.41,2.26,2.26,0,0,0,.79.14A2.41,2.41,0,0,0,447,117a3.34,3.34,0,0,0,.86-.64l.58.52a3.85,3.85,0,0,1-1.08.86,3.2,3.2,0,0,1-1.51.32,3.15,3.15,0,0,1-1.21-.24,3,3,0,0,1-1-.67,3.18,3.18,0,0,1-.67-1,3.49,3.49,0,0,1-.25-1.34,3.62,3.62,0,0,1,.22-1.28,3.2,3.2,0,0,1,.63-1,2.91,2.91,0,0,1,1-.7,3,3,0,0,1,2.45,0,2.72,2.72,0,0,1,.92.71,3.1,3.1,0,0,1,.57,1.06,4.26,4.26,0,0,1,.19,1.3v.14a1.6,1.6,0,0,1,0,.19Zm4-.75a3,3,0,0,0-.18-.81,2.29,2.29,0,0,0-.4-.67,1.79,1.79,0,0,0-.61-.46,1.89,1.89,0,0,0-.82-.17,1.83,1.83,0,0,0-.75.16,1.91,1.91,0,0,0-.62.44,2.46,2.46,0,0,0-.44.67,2.7,2.7,0,0,0-.22.83Zm-1.41-5.48,1,.45-1.37,1.31h-.75Z"/><path class="cls-3" d="M452.18,118a3.12,3.12,0,0,1-.86-.12,2.24,2.24,0,0,1-.75-.37,1.93,1.93,0,0,1-.53-.61,1.74,1.74,0,0,1-.2-.85v0a2,2,0,0,1,.19-.89,1.73,1.73,0,0,1,.55-.64,2.64,2.64,0,0,1,.85-.39,4.15,4.15,0,0,1,1.09-.13,6.55,6.55,0,0,1,1.05.07,7.76,7.76,0,0,1,.87.19V114a1.59,1.59,0,0,0-.49-1.26,2,2,0,0,0-1.37-.43,3.93,3.93,0,0,0-1,.12,5.29,5.29,0,0,0-.89.33l-.28-.77a6.63,6.63,0,0,1,1.06-.39,4.61,4.61,0,0,1,1.23-.15,2.75,2.75,0,0,1,2,.69,2.5,2.5,0,0,1,.66,1.85v3.84h-.92v-.94a3,3,0,0,1-.88.75A2.7,2.7,0,0,1,452.18,118Zm.19-.77a2.62,2.62,0,0,0,.81-.12,2.07,2.07,0,0,0,.66-.34,1.63,1.63,0,0,0,.45-.53,1.43,1.43,0,0,0,.16-.68V115q-.35-.1-.8-.18a5.57,5.57,0,0,0-1-.08,2.29,2.29,0,0,0-1.35.34,1.07,1.07,0,0,0-.48.91v0a1.09,1.09,0,0,0,.13.53,1.16,1.16,0,0,0,.34.39,1.65,1.65,0,0,0,.5.24A2.08,2.08,0,0,0,452.37,117.24Z"/><path class="cls-3" d="M459.45,118a2.44,2.44,0,0,1-.7-.1,1.45,1.45,0,0,1-.57-.31,1.42,1.42,0,0,1-.37-.55,2.21,2.21,0,0,1-.13-.81v-3.79h-.87v-.83h.88v-1.9h.94v1.9h2v.83h-2v3.66a1,1,0,0,0,.29.81,1.2,1.2,0,0,0,.76.23,2,2,0,0,0,.91-.21v.8a2.1,2.1,0,0,1-.52.2A2.63,2.63,0,0,1,459.45,118Z"/><path class="cls-3" d="M462.28,109.18h1.07v1h-1.07Zm.06,2.41h.94v6.28h-.94Z"/><path class="cls-3" d="M468.31,118a3.2,3.2,0,0,1-1.3-.26,3.28,3.28,0,0,1-1-.71,3.19,3.19,0,0,1-.68-1,3.27,3.27,0,0,1-.24-1.26v0a3.31,3.31,0,0,1,.24-1.26,3.3,3.3,0,0,1,5.38-1.05,3.18,3.18,0,0,1,.68,1,3.27,3.27,0,0,1,.24,1.26v0a3.24,3.24,0,0,1-.25,1.26,3.34,3.34,0,0,1-.69,1,3.2,3.2,0,0,1-1,.71A3.29,3.29,0,0,1,468.31,118Zm0-.84a2.22,2.22,0,0,0,.94-.19,2.28,2.28,0,0,0,.73-.52,2.39,2.39,0,0,0,.47-.77,2.56,2.56,0,0,0,.17-.94v0a2.57,2.57,0,0,0-.18-1A2.45,2.45,0,0,0,470,113a2.37,2.37,0,0,0-.74-.53,2.19,2.19,0,0,0-.92-.19,2.21,2.21,0,0,0-1.66.72,2.43,2.43,0,0,0-.47.77,2.61,2.61,0,0,0-.17.94v0a2.57,2.57,0,0,0,.18,1,2.39,2.39,0,0,0,.49.77,2.33,2.33,0,0,0,.74.52A2.19,2.19,0,0,0,468.34,117.18Z"/><path class="cls-3" d="M473.3,111.59h.94v1.09a3,3,0,0,1,.83-.87,2.25,2.25,0,0,1,1.32-.36,2.66,2.66,0,0,1,1,.18,2.1,2.1,0,0,1,.75.52,2.27,2.27,0,0,1,.47.8,3,3,0,0,1,.16,1v3.9h-.94v-3.66a2,2,0,0,0-.45-1.38,1.63,1.63,0,0,0-1.29-.51,2,2,0,0,0-.75.14,1.75,1.75,0,0,0-.6.4,1.8,1.8,0,0,0-.39.62,2.22,2.22,0,0,0-.14.8v3.59h-.94Z"/><path class="cls-3" d="M487.06,118a2.9,2.9,0,0,1-1.11-.22,2.94,2.94,0,0,1-1-.64,3.12,3.12,0,0,1-.68-1,3.51,3.51,0,0,1-.25-1.38v0a3.52,3.52,0,0,1,.25-1.37,3.11,3.11,0,0,1,.68-1,3,3,0,0,1,1-.64,2.83,2.83,0,0,1,1.11-.22,2.77,2.77,0,0,1,.8.11,2.68,2.68,0,0,1,.66.29,2.86,2.86,0,0,1,.53.43,3.77,3.77,0,0,1,.42.51V109h.94v8.87h-.94v-1.26a5.06,5.06,0,0,1-.43.54,3,3,0,0,1-.53.45,2.46,2.46,0,0,1-.65.3A2.71,2.71,0,0,1,487.06,118Zm.17-.84a2.11,2.11,0,0,0,.84-.18,2.34,2.34,0,0,0,.73-.5,2.4,2.4,0,0,0,.51-.77,2.52,2.52,0,0,0,.19-1v0a2.52,2.52,0,0,0-.19-1,2.32,2.32,0,0,0-.51-.76,2.39,2.39,0,0,0-.73-.49,2.11,2.11,0,0,0-.84-.18,2.25,2.25,0,0,0-.86.16,2,2,0,0,0-.7.47,2.29,2.29,0,0,0-.47.76,2.78,2.78,0,0,0-.18,1v0a2.75,2.75,0,0,0,.18,1,2.3,2.3,0,0,0,.48.77,2.12,2.12,0,0,0,.71.49A2.16,2.16,0,0,0,487.23,117.16Z"/><path class="cls-3" d="M492.07,111.7a1.43,1.43,0,0,0,.66-.42.86.86,0,0,0,.16-.64h-.44v-1.28h1.12v1.09a1.68,1.68,0,0,1-.33,1.12,1.83,1.83,0,0,1-1,.54Z"/><path class="cls-3" d="M497.34,118a3.12,3.12,0,0,1-.86-.12,2.24,2.24,0,0,1-.75-.37,1.93,1.93,0,0,1-.53-.61,1.74,1.74,0,0,1-.2-.85v0a2,2,0,0,1,.19-.89,1.73,1.73,0,0,1,.55-.64,2.64,2.64,0,0,1,.85-.39,4.15,4.15,0,0,1,1.09-.13,6.55,6.55,0,0,1,1.05.07,7.76,7.76,0,0,1,.87.19V114a1.59,1.59,0,0,0-.49-1.26,2,2,0,0,0-1.37-.43,3.93,3.93,0,0,0-1,.12,5.29,5.29,0,0,0-.89.33l-.28-.77a6.63,6.63,0,0,1,1.06-.39,4.61,4.61,0,0,1,1.23-.15,2.75,2.75,0,0,1,2,.69,2.5,2.5,0,0,1,.66,1.85v3.84h-.92v-.94a3,3,0,0,1-.88.75A2.7,2.7,0,0,1,497.34,118Zm.19-.77a2.62,2.62,0,0,0,.81-.12,2.07,2.07,0,0,0,.66-.34,1.63,1.63,0,0,0,.45-.53,1.43,1.43,0,0,0,.16-.68V115q-.35-.1-.8-.18a5.57,5.57,0,0,0-1-.08,2.29,2.29,0,0,0-1.35.34,1.07,1.07,0,0,0-.48.91v0a1.09,1.09,0,0,0,.13.53,1.16,1.16,0,0,0,.34.39,1.65,1.65,0,0,0,.5.24A2.08,2.08,0,0,0,497.53,117.24Z"/><path class="cls-3" d="M502.5,111.59h.94v1.26a4.86,4.86,0,0,1,.43-.54,2.71,2.71,0,0,1,1.18-.75,2.59,2.59,0,0,1,.8-.12,2.89,2.89,0,0,1,1.1.22,2.93,2.93,0,0,1,1,.64,3.11,3.11,0,0,1,.68,1,3.51,3.51,0,0,1,.25,1.38v0a3.52,3.52,0,0,1-.25,1.37,3.16,3.16,0,0,1-.67,1,3,3,0,0,1-1,.64,2.88,2.88,0,0,1-1.11.22,2.77,2.77,0,0,1-.8-.11,2.68,2.68,0,0,1-.66-.29,2.82,2.82,0,0,1-.53-.42,3.72,3.72,0,0,1-.42-.51v3.15h-.94Zm3.17,5.58a2.27,2.27,0,0,0,.86-.16,2,2,0,0,0,.71-.47,2.27,2.27,0,0,0,.47-.76,2.79,2.79,0,0,0,.18-1v0a2.75,2.75,0,0,0-.18-1,2.3,2.3,0,0,0-.48-.77,2.13,2.13,0,0,0-1.56-.66,2.11,2.11,0,0,0-.84.18,2.33,2.33,0,0,0-.73.5,2.38,2.38,0,0,0-.51.77,2.47,2.47,0,0,0-.19,1v0a2.54,2.54,0,0,0,.19,1,2.29,2.29,0,0,0,.51.77,2.38,2.38,0,0,0,.73.49A2.1,2.1,0,0,0,505.68,117.16Z"/><path class="cls-3" d="M510.57,111.59h.94v1.26a4.86,4.86,0,0,1,.43-.54,2.71,2.71,0,0,1,1.18-.75,2.59,2.59,0,0,1,.8-.12,2.89,2.89,0,0,1,1.1.22,2.93,2.93,0,0,1,1,.64,3.11,3.11,0,0,1,.68,1,3.51,3.51,0,0,1,.25,1.38v0a3.52,3.52,0,0,1-.25,1.37,3.16,3.16,0,0,1-.67,1,3,3,0,0,1-1,.64,2.88,2.88,0,0,1-1.11.22,2.77,2.77,0,0,1-.8-.11,2.68,2.68,0,0,1-.66-.29,2.82,2.82,0,0,1-.53-.42,3.72,3.72,0,0,1-.42-.51v3.15h-.94Zm3.17,5.58a2.27,2.27,0,0,0,.86-.16,2,2,0,0,0,.71-.47,2.27,2.27,0,0,0,.47-.76,2.79,2.79,0,0,0,.18-1v0a2.75,2.75,0,0,0-.18-1,2.3,2.3,0,0,0-.48-.77,2.13,2.13,0,0,0-1.56-.66,2.11,2.11,0,0,0-.84.18,2.33,2.33,0,0,0-.73.5,2.38,2.38,0,0,0-.51.77,2.47,2.47,0,0,0-.19,1v0a2.54,2.54,0,0,0,.19,1,2.29,2.29,0,0,0,.51.77,2.38,2.38,0,0,0,.73.49A2.1,2.1,0,0,0,513.74,117.16Z"/><path class="cls-3" d="M518.72,109h.94v8.87h-.94Z"/><path class="cls-3" d="M521.86,109.18h1.07v1h-1.07Zm.06,2.41h.94v6.28h-.94Z"/><path class="cls-3" d="M527.86,118a3.13,3.13,0,0,1-1.28-.26,3.19,3.19,0,0,1-1.69-1.74,3.27,3.27,0,0,1-.24-1.25v0a3.33,3.33,0,0,1,.92-2.31,3.21,3.21,0,0,1,1-.71,3.13,3.13,0,0,1,1.28-.26,3.58,3.58,0,0,1,.81.08,3,3,0,0,1,1.23.6,4.94,4.94,0,0,1,.47.44l-.62.66a4.44,4.44,0,0,0-.82-.67,2,2,0,0,0-1.09-.28,2.11,2.11,0,0,0-.89.19,2.22,2.22,0,0,0-.72.52,2.38,2.38,0,0,0-.47.77,2.64,2.64,0,0,0-.17,1v0a2.57,2.57,0,0,0,.18,1,2.46,2.46,0,0,0,.49.78,2.23,2.23,0,0,0,.73.52,2.21,2.21,0,0,0,.92.19,2.13,2.13,0,0,0,1.08-.27,3.59,3.59,0,0,0,.84-.67l.6.56a4.16,4.16,0,0,1-1.08.88A3,3,0,0,1,527.86,118Z"/><path class="cls-3" d="M533.84,118a3.12,3.12,0,0,1-.86-.12,2.24,2.24,0,0,1-.75-.37,1.93,1.93,0,0,1-.53-.61,1.74,1.74,0,0,1-.2-.85v0a2,2,0,0,1,.19-.89,1.73,1.73,0,0,1,.55-.64,2.64,2.64,0,0,1,.85-.39,4.15,4.15,0,0,1,1.09-.13,6.55,6.55,0,0,1,1.05.07,7.76,7.76,0,0,1,.87.19V114a1.59,1.59,0,0,0-.49-1.26,2,2,0,0,0-1.37-.43,3.93,3.93,0,0,0-1,.12,5.29,5.29,0,0,0-.89.33l-.28-.77a6.63,6.63,0,0,1,1.06-.39,4.61,4.61,0,0,1,1.23-.15,2.75,2.75,0,0,1,2,.69A2.5,2.5,0,0,1,537,114v3.84h-.92v-.94a3,3,0,0,1-.88.75A2.7,2.7,0,0,1,533.84,118Zm.19-.77a2.62,2.62,0,0,0,.81-.12,2.07,2.07,0,0,0,.66-.34,1.63,1.63,0,0,0,.45-.53,1.43,1.43,0,0,0,.16-.68V115q-.35-.1-.8-.18a5.57,5.57,0,0,0-1-.08,2.29,2.29,0,0,0-1.35.34,1.07,1.07,0,0,0-.48.91v0a1.09,1.09,0,0,0,.13.53,1.16,1.16,0,0,0,.34.39,1.65,1.65,0,0,0,.5.24A2.08,2.08,0,0,0,534,117.24Z"/><path class="cls-3" d="M541.1,118a2.44,2.44,0,0,1-.7-.1,1.45,1.45,0,0,1-.57-.31,1.42,1.42,0,0,1-.37-.55,2.21,2.21,0,0,1-.13-.81v-3.79h-.87v-.83h.88v-1.9h.94v1.9h2v.83h-2v3.66a1,1,0,0,0,.29.81,1.2,1.2,0,0,0,.76.23,2,2,0,0,0,.91-.21v.8a2.1,2.1,0,0,1-.52.2A2.63,2.63,0,0,1,541.1,118Z"/><path class="cls-3" d="M543.94,109.18H545v1h-1.07Zm.06,2.41h.94v6.28H544Z"/><path class="cls-3" d="M550,118a3.2,3.2,0,0,1-1.3-.26,3.28,3.28,0,0,1-1-.71,3.19,3.19,0,0,1-.68-1,3.27,3.27,0,0,1-.24-1.26v0a3.31,3.31,0,0,1,.24-1.26,3.3,3.3,0,0,1,5.38-1.05,3.18,3.18,0,0,1,.68,1,3.27,3.27,0,0,1,.24,1.26v0A3.24,3.24,0,0,1,553,116a3.34,3.34,0,0,1-.69,1,3.2,3.2,0,0,1-1,.71A3.29,3.29,0,0,1,550,118Zm0-.84a2.22,2.22,0,0,0,.94-.19,2.28,2.28,0,0,0,.73-.52,2.39,2.39,0,0,0,.47-.77,2.56,2.56,0,0,0,.17-.94v0a2.57,2.57,0,0,0-.18-1,2.45,2.45,0,0,0-.49-.78,2.37,2.37,0,0,0-.74-.53,2.19,2.19,0,0,0-.92-.19,2.21,2.21,0,0,0-1.66.72,2.43,2.43,0,0,0-.47.77,2.61,2.61,0,0,0-.17.94v0a2.57,2.57,0,0,0,.18,1,2.39,2.39,0,0,0,.49.77,2.33,2.33,0,0,0,.74.52A2.19,2.19,0,0,0,550,117.18Z"/><path class="cls-3" d="M555,111.59h.94v1.09a3,3,0,0,1,.83-.87,2.25,2.25,0,0,1,1.32-.36,2.66,2.66,0,0,1,1,.18,2.1,2.1,0,0,1,.75.52,2.27,2.27,0,0,1,.47.8,3,3,0,0,1,.16,1v3.9h-.94v-3.66a2,2,0,0,0-.45-1.38,1.63,1.63,0,0,0-1.29-.51,2,2,0,0,0-.75.14,1.75,1.75,0,0,0-.6.4,1.8,1.8,0,0,0-.39.62,2.22,2.22,0,0,0-.14.8v3.59H555Z"/><path class="cls-3" d="M564.52,118a4,4,0,0,1-1.37-.25,4.29,4.29,0,0,1-1.23-.67l.47-.67a4.16,4.16,0,0,0,1.06.59,3.16,3.16,0,0,0,1.11.21,1.54,1.54,0,0,0,.94-.27.85.85,0,0,0,.37-.73v0a.65.65,0,0,0-.13-.4,1.14,1.14,0,0,0-.35-.3,2.81,2.81,0,0,0-.5-.22l-.59-.18-.74-.24a3,3,0,0,1-.67-.32,1.6,1.6,0,0,1-.49-.49,1.31,1.31,0,0,1-.19-.73v0a1.7,1.7,0,0,1,.16-.74,1.63,1.63,0,0,1,.44-.57,2,2,0,0,1,.68-.37,2.77,2.77,0,0,1,.86-.13,3.88,3.88,0,0,1,1.18.19,4.39,4.39,0,0,1,1.08.5l-.43.71a4.23,4.23,0,0,0-.92-.44,2.9,2.9,0,0,0-.94-.16,1.39,1.39,0,0,0-.89.26.8.8,0,0,0-.33.65v0a.58.58,0,0,0,.13.38,1.17,1.17,0,0,0,.36.29,3.27,3.27,0,0,0,.52.22l.61.19.72.24a2.83,2.83,0,0,1,.65.34,1.66,1.66,0,0,1,.47.5,1.37,1.37,0,0,1,.18.72v0a1.73,1.73,0,0,1-.18.8,1.82,1.82,0,0,1-.47.59,2.09,2.09,0,0,1-.7.37A2.94,2.94,0,0,1,564.52,118Z"/><path class="cls-3" d="M572.13,111.59h.94v1.06a5.11,5.11,0,0,1,.35-.45,2.12,2.12,0,0,1,.43-.38,2.16,2.16,0,0,1,.55-.26,2.33,2.33,0,0,1,.71-.1,2.11,2.11,0,0,1,1.26.36,2.32,2.32,0,0,1,.75.89,3.92,3.92,0,0,1,.38-.49,2.4,2.4,0,0,1,.48-.4,2.36,2.36,0,0,1,.6-.27,2.68,2.68,0,0,1,.75-.1,2.21,2.21,0,0,1,1.71.67,2.64,2.64,0,0,1,.62,1.85v3.89h-.94v-3.66a2.06,2.06,0,0,0-.43-1.4,1.51,1.51,0,0,0-1.2-.49,1.76,1.76,0,0,0-.67.13,1.56,1.56,0,0,0-.55.38,1.82,1.82,0,0,0-.38.61,2.28,2.28,0,0,0-.14.83v3.61h-.92v-3.69a2,2,0,0,0-.43-1.38,1.5,1.5,0,0,0-1.18-.49,1.64,1.64,0,0,0-.69.15,1.68,1.68,0,0,0-.55.41,2,2,0,0,0-.37.63,2.24,2.24,0,0,0-.13.79v3.58h-.94Z"/><path class="cls-3" d="M586.56,118a3.2,3.2,0,0,1-1.3-.26,3.28,3.28,0,0,1-1-.71,3.19,3.19,0,0,1-.68-1,3.27,3.27,0,0,1-.24-1.26v0a3.31,3.31,0,0,1,.24-1.26,3.3,3.3,0,0,1,5.38-1.05,3.18,3.18,0,0,1,.68,1,3.27,3.27,0,0,1,.24,1.26v0a3.24,3.24,0,0,1-.25,1.26,3.34,3.34,0,0,1-.69,1,3.2,3.2,0,0,1-1,.71A3.29,3.29,0,0,1,586.56,118Zm0-.84a2.22,2.22,0,0,0,.94-.19,2.28,2.28,0,0,0,.73-.52,2.39,2.39,0,0,0,.47-.77,2.56,2.56,0,0,0,.17-.94v0a2.57,2.57,0,0,0-.18-1,2.45,2.45,0,0,0-.49-.78,2.37,2.37,0,0,0-.74-.53,2.19,2.19,0,0,0-.92-.19,2.21,2.21,0,0,0-1.66.72,2.43,2.43,0,0,0-.47.77,2.61,2.61,0,0,0-.17.94v0a2.57,2.57,0,0,0,.18,1,2.39,2.39,0,0,0,.49.77,2.33,2.33,0,0,0,.74.52A2.19,2.19,0,0,0,586.58,117.18Z"/><path class="cls-3" d="M594.88,118a2.77,2.77,0,0,1-.8-.11,2.68,2.68,0,0,1-.66-.29,2.82,2.82,0,0,1-.53-.42,3.72,3.72,0,0,1-.42-.51v1.2h-.94V109h.94v3.85a4.86,4.86,0,0,1,.43-.54,2.71,2.71,0,0,1,1.18-.75,2.59,2.59,0,0,1,.8-.12,2.89,2.89,0,0,1,1.1.22,2.93,2.93,0,0,1,1,.64,3.11,3.11,0,0,1,.68,1,3.51,3.51,0,0,1,.25,1.38v0a3.52,3.52,0,0,1-.25,1.37,3.16,3.16,0,0,1-.67,1,3,3,0,0,1-1,.64A2.88,2.88,0,0,1,594.88,118Zm-.17-.84a2.27,2.27,0,0,0,.86-.16,2,2,0,0,0,.71-.47,2.27,2.27,0,0,0,.47-.76,2.79,2.79,0,0,0,.18-1v0a2.75,2.75,0,0,0-.18-1,2.3,2.3,0,0,0-.48-.77,2.13,2.13,0,0,0-1.56-.66,2.11,2.11,0,0,0-.84.18,2.33,2.33,0,0,0-.73.5,2.38,2.38,0,0,0-.51.77,2.47,2.47,0,0,0-.19,1v0a2.54,2.54,0,0,0,.19,1,2.29,2.29,0,0,0,.51.77,2.38,2.38,0,0,0,.73.49A2.1,2.1,0,0,0,594.71,117.16Z"/><path class="cls-3" d="M599.63,109.18h1.07v1h-1.07Zm.06,2.41h.94v6.28h-.94Z"/><path class="cls-3" d="M602.89,109h.94v8.87h-.94Z"/><path class="cls-3" d="M606.55,115.11a2.5,2.5,0,0,0,.24.89,2.14,2.14,0,0,0,.5.66,2.18,2.18,0,0,0,.68.41,2.26,2.26,0,0,0,.79.14,2.41,2.41,0,0,0,1.12-.24,3.34,3.34,0,0,0,.86-.64l.58.52a3.85,3.85,0,0,1-1.08.86,3.2,3.2,0,0,1-1.51.32,3.15,3.15,0,0,1-1.21-.24,3,3,0,0,1-1-.67,3.18,3.18,0,0,1-.67-1,3.49,3.49,0,0,1-.25-1.34,3.62,3.62,0,0,1,.22-1.28,3.2,3.2,0,0,1,.63-1,2.91,2.91,0,0,1,1-.7,3,3,0,0,1,2.45,0,2.72,2.72,0,0,1,.92.71,3.1,3.1,0,0,1,.57,1.06,4.26,4.26,0,0,1,.19,1.3v.14a1.6,1.6,0,0,1,0,.19Zm4-.77a3,3,0,0,0-.18-.8,2.28,2.28,0,0,0-.4-.67,1.8,1.8,0,0,0-.61-.46,1.89,1.89,0,0,0-.82-.17,1.83,1.83,0,0,0-.75.16,1.91,1.91,0,0,0-.62.44,2.46,2.46,0,0,0-.44.67,2.7,2.7,0,0,0-.22.83Z"/><path class="cls-3" d="M615.27,118a4,4,0,0,1-1.37-.25,4.29,4.29,0,0,1-1.23-.67l.47-.67a4.16,4.16,0,0,0,1.06.59,3.16,3.16,0,0,0,1.11.21,1.54,1.54,0,0,0,.94-.27.85.85,0,0,0,.37-.73v0a.65.65,0,0,0-.13-.4,1.14,1.14,0,0,0-.35-.3,2.81,2.81,0,0,0-.5-.22l-.59-.18-.74-.24a3,3,0,0,1-.67-.32,1.6,1.6,0,0,1-.49-.49,1.31,1.31,0,0,1-.19-.73v0a1.7,1.7,0,0,1,.16-.74,1.63,1.63,0,0,1,.44-.57,2,2,0,0,1,.68-.37,2.77,2.77,0,0,1,.86-.13,3.88,3.88,0,0,1,1.18.19,4.39,4.39,0,0,1,1.08.5l-.43.71a4.23,4.23,0,0,0-.92-.44,2.9,2.9,0,0,0-.94-.16,1.39,1.39,0,0,0-.89.26.8.8,0,0,0-.33.65v0a.58.58,0,0,0,.13.38,1.17,1.17,0,0,0,.36.29,3.27,3.27,0,0,0,.52.22l.61.19.72.24a2.83,2.83,0,0,1,.65.34,1.66,1.66,0,0,1,.47.5,1.37,1.37,0,0,1,.18.72v0a1.73,1.73,0,0,1-.18.8,1.82,1.82,0,0,1-.47.59,2.09,2.09,0,0,1-.7.37A2.94,2.94,0,0,1,615.27,118Z"/><path class="cls-3" d="M626,119.58a7.14,7.14,0,0,1-2.5-2.21,5.54,5.54,0,0,1,0-6,7.13,7.13,0,0,1,2.5-2.21l.4.62a6.68,6.68,0,0,0-2.11,2,5,5,0,0,0,0,5.16,6.7,6.7,0,0,0,2.11,2Z"/><path class="cls-3" d="M628.31,109.36h3.18a4.27,4.27,0,0,1,1.31.19,3,3,0,0,1,1,.53,2.33,2.33,0,0,1,.64.84,2.73,2.73,0,0,1,.22,1.13v0a2.51,2.51,0,0,1-1,2.08,3.16,3.16,0,0,1-1.06.53,4.61,4.61,0,0,1-1.29.18h-2.07v3h-1Zm3.07,4.64a3.2,3.2,0,0,0,1-.13,2.21,2.21,0,0,0,.74-.38,1.7,1.7,0,0,0,.48-.59,1.75,1.75,0,0,0,.16-.77v0a1.62,1.62,0,0,0-.63-1.38,2.71,2.71,0,0,0-1.66-.47h-2.16V114Z"/><path class="cls-3" d="M635.77,109.36h1l2.43,7.08,2.33-7.11h.79l2.33,7.11,2.43-7.08h1l-3,8.57h-.81L642,111l-2.35,6.9h-.8Z"/><path class="cls-3" d="M653,109.3h.9l3.88,8.57h-1l-1-2.25h-4.63l-1,2.25h-1Zm2.37,5.46-1.93-4.34-1.94,4.34Z"/><path class="cls-3" d="M659,119a6.71,6.71,0,0,0,2.11-2,5,5,0,0,0,0-5.16,6.69,6.69,0,0,0-2.11-2l.4-.62a7.13,7.13,0,0,1,2.5,2.21,5.54,5.54,0,0,1,0,6,7.14,7.14,0,0,1-2.5,2.21Z"/></g></g></svg>